# xmcd CD database file
#
# Track frame offsets:
#	150
#	14602
#	28845
#	44968
#	56033
#	70579
#	85097
#	99556
#	113212
#	127956
#
# Disc length: 1864 seconds
#
# Revision: 0
# Processed by: cddbd v1.5.1PL0 Copyright (c) Steve Scherf et al.
# Submitted via: CDex 1.51
#
DISCID=8907460a
DTITLE=Various Artist - Totally Jazz
DYEAR=2003
DGENRE=Jazz
TTITLE0=Unforgetable  Nat King Cole
TTITLE1=Cry My Heart Out For You  Ella Fitzgerald
TTITLE2=These Foolish Things  Billie Holiday
TTITLE3=Up a Lazy River Woody Herman and Peggy Lee
TTITLE4=The Nearness of You  Glenn Miller and Ray Eberle
TTITLE5=All of Me  Jimmy Dorsey and Helen O'Connell
TTITLE6=Memories of You Lionel Hampton
TTITLE7=Ain't Misbehavin Lous Armstrong
TTITLE8=Sophisticated Lady  Art Tatum
TTITLE9=Little Girl Blue  Lena Horne
EXTD=YEAR: 2003
EXTT0=
EXTT1=
EXTT2=
EXTT3=
EXTT4=
EXTT5=
EXTT6=
EXTT7=
EXTT8=
EXTT9=
PLAYORDER=
